<svg xmlns="http://www.w3.org/2000/svg" width="30" height="29.999" viewBox="0 0 30 29.999">
  <g id="ins" transform="translate(0 -0.001)">
    <path id="Fill_1" data-name="Fill 1" d="M2.726,0A2.725,2.725,0,1,0,5.451,2.726,2.726,2.726,0,0,0,2.726,0" transform="translate(12.274 12.275)" fill="#003063"/>
    <path id="Fill_3" data-name="Fill 3" d="M15,30A15,15,0,0,1,9.161,1.179,15,15,0,0,1,20.839,28.821,14.906,14.906,0,0,1,15,30ZM15,6.774c-2.224,0-2.515.01-3.391.051a6.064,6.064,0,0,0-2,.382,4.2,4.2,0,0,0-2.4,2.4,6.091,6.091,0,0,0-.382,2c-.04.88-.049,1.172-.049,3.39s.009,2.51.049,3.391a6.072,6.072,0,0,0,.382,2,4.207,4.207,0,0,0,2.4,2.406,6.117,6.117,0,0,0,2,.382c.884.039,1.177.048,3.391.048s2.507-.009,3.391-.048a6.117,6.117,0,0,0,2-.382,4.207,4.207,0,0,0,2.4-2.406,6.072,6.072,0,0,0,.382-2c.04-.881.049-1.174.049-3.391s-.009-2.51-.049-3.39a6.091,6.091,0,0,0-.382-2,4.2,4.2,0,0,0-2.4-2.4,6.064,6.064,0,0,0-2-.382C17.515,6.784,17.224,6.774,15,6.774Z" transform="translate(0 0.001)" fill="#003063"/>
    <path id="Fill_5" data-name="Fill 5" d="M6.7,13.406c-2.169,0-2.43-.008-3.3-.048a4.5,4.5,0,0,1-1.518-.282,2.534,2.534,0,0,1-.941-.612,2.545,2.545,0,0,1-.612-.939,4.538,4.538,0,0,1-.281-1.518C.008,9.162,0,8.906,0,6.7s.008-2.46.048-3.3A4.537,4.537,0,0,1,.329,1.881,2.544,2.544,0,0,1,.94.94,2.533,2.533,0,0,1,1.881.329,4.509,4.509,0,0,1,3.4.048C4.243.008,4.5,0,6.7,0s2.46.008,3.3.048a4.531,4.531,0,0,1,1.518.282,2.52,2.52,0,0,1,.939.611,2.534,2.534,0,0,1,.612.941A4.483,4.483,0,0,1,13.357,3.4c.04.868.049,1.128.049,3.3s-.009,2.435-.049,3.3a4.483,4.483,0,0,1-.281,1.518,2.71,2.71,0,0,1-1.551,1.551,4.517,4.517,0,0,1-1.518.282C9.133,13.4,8.873,13.406,6.7,13.406Zm0-10.9a4.2,4.2,0,1,0,4.2,4.2A4.2,4.2,0,0,0,6.7,2.5Zm4.364-1.147a.981.981,0,1,0,.982.981A.982.982,0,0,0,11.067,1.358Z" transform="translate(8.297 8.297)" fill="#003063"/>
  </g>
</svg>
