<svg xmlns="http://www.w3.org/2000/svg" width="172" height="40.24" viewBox="0 0 172 40.24">
  <g id="logo-main" transform="translate(-164.552 -138.918)">
    <path id="Path_1" data-name="Path 1" d="M173.326,198.081h-1.665l-3.433-8.982v16.022l.416,1.6h-4.092l.416-1.6V181.99l-.416-1.63h3.676l4.266,10.855,4.266-10.855h3.676l-.416,1.63v23.131l.416,1.6h-4.092l.416-1.6V189.1Z" transform="translate(0 -27.559)" fill="#003063"/>
    <path id="Path_2" data-name="Path 2" d="M245.616,205.607l-1.075-6.312-.139-.139-3.295,1.942-.277.312-.694,4.2.243,1.11h-4.092l.763-2.254,3.884-22.611-.347-1.491H245.1l-.347,1.491,3.919,22.576.8,2.289h-4.127Zm-2.774-16.2-1.283,7.491.139.139L243.6,195.9l.277-.312Z" transform="translate(-47.704 -27.559)" fill="#003063"/>
    <g id="Group_4" data-name="Group 4" transform="translate(209.91 152.801)">
      <path id="Path_3" data-name="Path 3" d="M309.833,206.716h-9.884l.416-1.6V181.99l-.416-1.63h4.092l-.381,1.63V203.04l.381.382h4.682l1.7-.382Z" transform="translate(-299.949 -180.36)" fill="#3476bc"/>
      <path id="Path_4" data-name="Path 4" d="M363,205.607l-1.075-6.312-.139-.139-3.294,1.942-.277.312-.694,4.2.243,1.11h-4.092l.763-2.254,3.884-22.611-.347-1.491h4.508l-.347,1.491,3.919,22.576.8,2.289h-4.127Zm-2.774-16.2-1.283,7.491.139.139,1.907-1.144.278-.312Z" transform="translate(-335.675 -180.36)" fill="#3476bc"/>
    </g>
    <path id="Path_5" data-name="Path 5" d="M420.741,184.07l-1.734-.381h-2.115l-.381.381v21.051l.416,1.6H412.8l.416-1.6V184.07l-.382-.381h-2.185l-1.7.381.59-3.71h10.577Z" transform="translate(-162.525 -27.559)" fill="#003063"/>
    <path id="Path_6" data-name="Path 6" d="M468.781,206.716l.416-1.63V181.955l-.416-1.6h9.883l.59,3.641-1.7-.382h-4.716l-.382.382v7.491l.382.382h1.318l1.63-.416v4.127l-1.63-.416h-1.318l-.382.382v7.456l.382.382h4.716l1.7-.382-.59,3.711Z" transform="translate(-202.312 -27.559)" fill="#003063"/>
    <path id="Path_7" data-name="Path 7" d="M531.648,205.156,530.33,195.9l-.243-.277-1.144.694-.382.381v8.427l.416,1.6h-4.092l.416-1.6V181.99l-.416-1.63h8.635l1.665,1.63v9.884l-1.873,1.873,1.63,11.306.52,1.665h-4.092Zm.208-14.739V184.07l-.381-.381h-2.532l-.382.381v8.081l.277.243,2.636-1.6Z" transform="translate(-239.622 -27.559)" fill="#003063"/>
    <path id="Path_8" data-name="Path 8" d="M589.719,205.156,588.4,195.9l-.243-.277-1.144.694-.382.381v8.427l.416,1.6h-4.092l.416-1.6V181.99l-.416-1.63h8.635l1.665,1.63v9.884l-1.873,1.873,1.63,11.306.52,1.665h-4.092Zm.208-14.739V184.07l-.382-.381h-2.532l-.382.381v8.081l.277.243,2.636-1.6Z" transform="translate(-278.239 -27.559)" fill="#003063"/>
    <path id="Path_9" data-name="Path 9" d="M647.976,205.607l-1.075-6.312-.139-.139-3.295,1.942-.277.312-.693,4.2.243,1.11h-4.092l.763-2.254,3.884-22.611-.347-1.491h4.508l-.347,1.491,3.919,22.576.8,2.289H647.7Zm-2.774-16.2-1.283,7.491.139.139,1.907-1.144.277-.312Z" transform="translate(-315.273 -27.559)" fill="#003063"/>
    <path id="Path_10" data-name="Path 10" d="M325.654,143.205c-1.636-2.522-10.769-4.287-20.612-4.287s-18.971,1.766-20.612,4.287c-1.945,3,7.123,5.873,20.612,5.873S327.6,146.2,325.654,143.205Zm-20.612,4.671c-10.3,0-17.217-2.2-15.731-4.483,1.25-1.927,8.216-3.273,15.731-3.273s14.481,1.346,15.731,3.273C322.26,145.681,315.342,147.876,305.043,147.876Z" transform="translate(-79.545)" fill="#ffc000"/>
  </g>
</svg>
